<svg fill="none" height="199" viewBox="0 0 317 199" width="317" xmlns="http://www.w3.org/2000/svg" xmlns:xlink="http://www.w3.org/1999/xlink"><linearGradient id="a" gradientUnits="userSpaceOnUse" x1="-14.8159" x2="364.694" y1="105.617" y2="105.617"><stop offset="0" stop-color="#f10436"/><stop offset="1" stop-color="#ffae00"/></linearGradient><path d="m90.0676 11.0618v16.228h-5.8615v-27.07891h4.5535l15.5984 16.66391v-16.66391h5.861v27.07891h-4.747zm39.2304 16.4218c-2.131 0-4.069-.3714-5.813-1.1142-1.744-.7751-3.245-1.8085-4.505-3.1003-1.259-1.324-2.228-2.8096-2.906-4.4566-.679-1.647-1.018-3.3425-1.018-5.0864 0-1.8085.356-3.5201 1.066-5.1348.71-1.64701 1.712-3.10027 3.003-4.35975 1.292-1.29178 2.81-2.30905 4.554-3.05183 1.744-.742769 3.649-1.1141558 5.716-1.1141558 2.131 0 4.069.4036818 5.813 1.2110458 1.744.77506 3.229 1.82463 4.457 3.14871 1.259 1.29178 2.228 2.76117 2.906 4.40819.678 1.64699 1.017 3.32629 1.017 5.03789 0 1.7762-.355 3.4878-1.065 5.1349-.711 1.6147-1.712 3.0679-3.004 4.3597-1.259 1.2918-2.761 2.3091-4.505 3.0518-1.711.7105-3.617 1.0658-5.716 1.0658zm-8.332-13.709c0 1.098.194 2.1637.581 3.1971.388 1.0011.937 1.9054 1.647 2.7127.711.8074 1.583 1.4533 2.616 1.9377 1.066.4521 2.245.6782 3.537.6782 1.324 0 2.502-.2422 3.536-.7266 1.033-.5167 1.889-1.1788 2.567-1.9861.711-.8397 1.244-1.7601 1.599-2.7612.387-1.0334.581-2.0669.581-3.1003 0-1.098-.194-2.1476-.581-3.1487-.388-1.00112-.937-1.88921-1.647-2.66428-.711-.80736-1.583-1.4371-2.616-1.88923-1.033-.48441-2.196-.72662-3.488-.72662-1.324 0-2.503.24221-3.536.72662-1.034.48442-1.905 1.13031-2.616 1.93767-.71.80736-1.259 1.72775-1.647 2.76114-.355 1.0012-.533 2.0184-.533 3.0519zm36.712-13.466828h5.426l3.342 8.767948 3.439-8.767948h5.426l-5.135 12.449528 3.536 7.5084 8.72-20.05481h6.394l-12.207 27.07891h-4.941l-5.183-10.8994-5.184 10.8994h-4.941l-12.207-27.07891h6.346l8.816 20.05481 3.391-7.5084zm44.699 26.982028v-27.07891h5.862v27.07891zm29.881-19.47356c-.323-.29065-.888-.64589-1.696-1.06572-.807-.41983-1.743-.77507-2.809-1.06572-1.066-.32294-2.164-.48442-3.294-.48442-1.518 0-2.664.22606-3.44.67819-.742.41983-1.114 1.04957-1.114 1.88922 0 .64589.242 1.1626.727 1.55014.517.38753 1.259.72667 2.228 1.01727 1.001.2907 2.212.6136 3.633.9688 1.906.4845 3.553 1.0335 4.941 1.6471 1.421.6135 2.503 1.4209 3.246 2.422.775 1.0012 1.163 2.3414 1.163 4.0207 0 1.5178-.291 2.8096-.872 3.8753-.582 1.0335-1.389 1.8731-2.422 2.519-1.002.6459-2.164 1.1142-3.488 1.4048-1.292.2907-2.648.436-4.069.436-2.196 0-4.376-.3068-6.54-.9204s-4.085-1.4533-5.765-2.519l2.616-5.0864c.452.4199 1.147.8881 2.083 1.4049.969.4844 2.116.9204 3.44 1.3079 1.356.3552 2.777.5328 4.263.5328 1.453 0 2.551-.2099 3.294-.6297.775-.4198 1.162-1.0011 1.162-1.7439 0-.7105-.323-1.2756-.969-1.6955-.613-.4198-1.469-.7912-2.567-1.1141-1.098-.323-2.406-.6782-3.924-1.0657-1.841-.4845-3.375-1.0335-4.602-1.6471-1.195-.6458-2.099-1.4371-2.713-2.3736-.581-.9688-.871-2.14758-.871-3.53624 0-1.87308.468-3.43936 1.404-4.69884.969-1.25949 2.261-2.21217 3.876-2.858064 1.647-.645889 3.439-.9688329 5.377-.9688329 2.067 0 3.972.3067969 5.716.9203919 1.744.581305 3.245 1.275635 4.505 2.082995zm-145.75 54.52946h-9.543v21.9441h-5.8614v-21.9441h-9.5915v-5.1348h24.9959zm29.395-5.1348v27.0789h-5.862v-11.2385h-13.5634v11.2385h-5.8615v-27.0789h5.8615v10.6572h13.5634v-10.6572zm27.476 21.9441v5.1348h-20.878v-27.0789h20.49v5.1348h-14.629v5.7646h12.643v4.7957h-12.643v6.249zm38.026-16.8093h-9.543v21.9441h-5.862v-21.9441h-9.591v-5.1348h24.996zm4.108 21.9441v-27.0789h5.861v27.0789zm36.953 0v-16.9062l-7.751 12.4011h-3.197l-7.702-12.4011v16.9062h-5.862v-27.0789h6.346l8.865 14.6294 8.865-14.6294h6.249v27.0789zm33.313-5.1348v5.1348h-20.879v-27.0789h20.491v5.1348h-14.629v5.7646h12.643v4.7957h-12.643v6.249zm-230.1069 40.191h-9.543v21.944h-5.8615v-21.944h-9.591415v-5.135h24.995915zm15.9437 22.138c-2.1314 0-4.0691-.372-5.813-1.115-1.7439-.775-3.2456-1.808-4.505-3.1-1.2595-1.324-2.2284-2.809-2.9065-4.457-.6782-1.647-1.0173-3.342-1.0173-5.086 0-1.808.3552-3.52 1.0657-5.135.7105-1.647 1.7116-3.1 3.0034-4.359 1.2918-1.292 2.8096-2.31 4.5535-3.052 1.7439-.743 3.6493-1.114 5.7161-1.114 2.1315 0 4.0691.403 5.813 1.211 1.7439.775 3.2295 1.824 4.4567 3.148 1.2595 1.292 2.2283 2.761 2.9065 4.409.6782 1.647 1.0172 3.326 1.0172 5.037 0 1.777-.3552 3.488-1.0657 5.135-.7105 1.615-1.7116 3.068-3.0034 4.36-1.2594 1.292-2.7611 2.309-4.505 3.052-1.7116.71-3.617 1.066-5.7162 1.066zm-8.3319-13.709c0 1.098.1937 2.163.5813 3.197.3875 1.001.9365 1.905 1.647 2.712.7105.808 1.5824 1.454 2.6158 1.938 1.0658.452 2.2445.678 3.5363.678 1.3241 0 2.5028-.242 3.5362-.726 1.0335-.517 1.8893-1.179 2.5674-1.986.7105-.84 1.2434-1.76 1.5986-2.762.3875-1.033.5813-2.066.5813-3.1 0-1.098-.1938-2.147-.5813-3.149-.3875-1.001-.9365-1.889-1.647-2.664-.7105-.807-1.5824-1.437-2.6159-1.889-1.0334-.485-2.196-.727-3.4878-.727-1.324 0-2.5028.242-3.5362.727-1.0334.484-1.9054 1.13-2.6159 1.938-.7104.807-1.2594 1.727-1.647 2.761-.3552 1.001-.5328 2.018-.5328 3.052zm51.0844 13.709c-1.9054 0-3.6977-.372-5.377-1.115-1.6471-.775-3.1003-1.808-4.3598-3.1-1.2272-1.292-2.196-2.761-2.9065-4.408-.7105-1.679-1.0657-3.439-1.0657-5.28 0-1.873.3552-3.617 1.0657-5.232.7105-1.647 1.6955-3.084 2.9549-4.311 1.2918-1.26 2.7935-2.245 4.5051-2.955 1.7116-.711 3.5686-1.066 5.5708-1.066 2.7128 0 5.038.549 6.9756 1.647 1.9377 1.066 3.3909 2.487 4.3598 4.263l-4.4567 3.294c-.6458-1.292-1.6147-2.277-2.9065-2.955-1.2917-.678-2.6804-1.017-4.1659-1.017-1.1949 0-2.293.226-3.2941.678-.9688.452-1.8085 1.066-2.5189 1.841-.6782.775-1.2111 1.679-1.5986 2.713-.3876 1.033-.5813 2.131-.5813 3.294 0 1.194.2099 2.309.6297 3.342s1.0011 1.938 1.7439 2.713 1.6147 1.372 2.6159 1.792c1.0334.42 2.1475.63 3.3424.63 1.3887 0 2.7289-.339 4.0207-1.017 1.3241-.679 2.5674-1.647 3.73-2.907v5.765c-1.2272 1.162-2.519 2.018-3.8753 2.567-1.3241.549-2.7935.824-4.4082.824zm7.8475-9.979h-6.0067v-4.263h10.8509v14.048h-4.8442zm22.7252 9.979c-2.132 0-4.069-.372-5.813-1.115-1.744-.775-3.246-1.808-4.505-3.1-1.26-1.324-2.229-2.809-2.907-4.457-.678-1.647-1.017-3.342-1.017-5.086 0-1.808.355-3.52 1.066-5.135.71-1.647 1.711-3.1 3.003-4.359 1.292-1.292 2.81-2.31 4.553-3.052 1.744-.743 3.65-1.114 5.717-1.114 2.131 0 4.069.403 5.813 1.211 1.743.775 3.229 1.824 4.456 3.148 1.26 1.292 2.229 2.761 2.907 4.409.678 1.647 1.017 3.326 1.017 5.037 0 1.777-.355 3.488-1.066 5.135-.71 1.615-1.711 3.068-3.003 4.36-1.26 1.292-2.761 2.309-4.505 3.052-1.712.71-3.617 1.066-5.716 1.066zm-8.332-13.709c0 1.098.193 2.163.581 3.197.388 1.001.937 1.905 1.647 2.712.71.808 1.582 1.454 2.616 1.938 1.066.452 2.244.678 3.536.678 1.324 0 2.503-.242 3.536-.726 1.034-.517 1.89-1.179 2.568-1.986.71-.84 1.243-1.76 1.598-2.762.388-1.033.582-2.066.582-3.1 0-1.098-.194-2.147-.582-3.149-.387-1.001-.936-1.889-1.647-2.664-.71-.807-1.582-1.437-2.616-1.889-1.033-.485-2.196-.727-3.487-.727-1.324 0-2.503.242-3.537.727-1.033.484-1.905 1.13-2.615 1.938-.711.807-1.26 1.727-1.647 2.761-.356 1.001-.533 2.018-.533 3.052z" fill="#fff"/><path d="m169.658 134.363c0 1.517-.436 2.793-1.308 3.827-.872 1.033-2.034 1.808-3.488 2.325-1.453.516-3.051.775-4.795.775h-14.339v-27.079h15.937c1.389 0 2.584.339 3.585 1.017s1.776 1.55 2.325 2.616.824 2.18.824 3.342c0 1.26-.372 2.471-1.114 3.634-.711 1.162-1.744 2.018-3.101 2.567 1.68.452 3.004 1.276 3.973 2.471 1.001 1.162 1.501 2.664 1.501 4.505zm-5.91-1.211c0-.582-.161-1.115-.484-1.599-.291-.484-.694-.872-1.211-1.163-.485-.323-1.05-.484-1.696-.484h-8.768v6.443h8.478c.678 0 1.292-.129 1.841-.388.549-.29.985-.678 1.307-1.162.356-.485.533-1.034.533-1.647zm-12.159-13.903v6.055h7.606c.613 0 1.179-.113 1.695-.339.517-.226.921-.565 1.211-1.017.323-.452.485-1.018.485-1.696 0-.646-.146-1.179-.436-1.598-.259-.452-.63-.792-1.114-1.018-.485-.258-1.018-.387-1.599-.387zm43.874 16.906v5.135h-20.878v-27.079h20.491v5.135h-14.63v5.764h12.644v4.796h-12.644v6.249zm8.291-21.944 7.412 12.643 7.46-12.643h6.394l-10.948 17.73v9.349h-5.813v-9.398l-10.851-17.681zm35.46 27.273c-2.131 0-4.069-.372-5.813-1.115-1.743-.775-3.245-1.808-4.505-3.1-1.259-1.324-2.228-2.809-2.906-4.457-.678-1.647-1.017-3.342-1.017-5.086 0-1.808.355-3.52 1.065-5.135.711-1.647 1.712-3.1 3.004-4.359 1.291-1.292 2.809-2.31 4.553-3.052 1.744-.743 3.649-1.114 5.716-1.114 2.132 0 4.069.403 5.813 1.211 1.744.775 3.23 1.824 4.457 3.148 1.259 1.292 2.228 2.761 2.906 4.409.679 1.647 1.018 3.326 1.018 5.037 0 1.777-.356 3.488-1.066 5.135-.71 1.615-1.712 3.068-3.003 4.36-1.26 1.292-2.762 2.309-4.505 3.052-1.712.71-3.617 1.066-5.717 1.066zm-8.332-13.709c0 1.098.194 2.163.582 3.197.387 1.001.936 1.905 1.647 2.712.71.808 1.582 1.454 2.616 1.938 1.065.452 2.244.678 3.536.678 1.324 0 2.503-.242 3.536-.726 1.034-.517 1.889-1.179 2.568-1.986.71-.84 1.243-1.76 1.598-2.762.388-1.033.581-2.066.581-3.1 0-1.098-.193-2.147-.581-3.149-.387-1.001-.936-1.889-1.647-2.664-.71-.807-1.582-1.437-2.616-1.889-1.033-.485-2.196-.727-3.488-.727-1.324 0-2.502.242-3.536.727-1.033.484-1.905 1.13-2.616 1.938-.71.807-1.259 1.727-1.647 2.761-.355 1.001-.533 2.018-.533 3.052zm33.344-2.713v16.228h-5.862v-27.079h4.554l15.598 16.664v-16.664h5.862v27.079h-4.748zm26.732 16.228v-27.079h10.948c3.262 0 5.991.613 8.187 1.841 2.196 1.195 3.843 2.809 4.941 4.844 1.13 2.034 1.695 4.295 1.695 6.782 0 2.745-.613 5.134-1.84 7.169-1.228 2.035-2.955 3.617-5.184 4.747-2.196 1.131-4.795 1.696-7.799 1.696zm19.813-13.564c0-1.679-.355-3.132-1.066-4.36-.678-1.259-1.679-2.244-3.003-2.955-1.292-.71-2.89-1.065-4.796-1.065h-5.086v16.809h5.086c1.938 0 3.553-.355 4.844-1.066 1.325-.743 2.326-1.76 3.004-3.052.678-1.291 1.017-2.728 1.017-4.311zm-289.0566 70.564v-27.079h5.8615v27.079zm36.9531 0v-16.906l-7.7507 12.401h-3.1971l-7.7022-12.401v16.906h-5.8615v-27.079h6.3459l8.8648 14.629 8.8648-14.629h6.249v27.079zm9.2861 0 11.8197-27.079h4.7958l11.7713 27.079h-6.2006l-2.7127-6.346h-10.5118l-2.7128 6.346zm14.2418-19.958-3.9722 8.526h7.7991zm28.5466 20.152c-1.906 0-3.698-.372-5.377-1.115-1.647-.775-3.101-1.808-4.36-3.1-1.2274-1.292-2.1962-2.761-2.9067-4.408-.7105-1.679-1.0657-3.439-1.0657-5.28 0-1.873.3552-3.617 1.0657-5.232.7105-1.647 1.6954-3.084 2.9547-4.311 1.292-1.26 2.794-2.245 4.505-2.955 1.712-.711 3.569-1.066 5.571-1.066 2.713 0 5.038.549 6.976 1.647 1.937 1.066 3.391 2.487 4.359 4.263l-4.456 3.294c-.646-1.292-1.615-2.277-2.907-2.955-1.291-.678-2.68-1.017-4.166-1.017-1.195 0-2.293.226-3.294.678-.969.452-1.808 1.066-2.519 1.841-.678.775-1.211 1.679-1.598 2.713-.388 1.033-.582 2.131-.582 3.294 0 1.194.21 2.309.63 3.342s1.001 1.938 1.744 2.713 1.615 1.372 2.616 1.792c1.033.42 2.148.63 3.342.63 1.389 0 2.729-.339 4.021-1.017 1.324-.679 2.567-1.647 3.73-2.907v5.765c-1.227 1.162-2.519 2.018-3.875 2.567-1.324.549-2.794.824-4.408.824zm7.847-9.979h-6.007v-4.263h10.851v14.048h-4.844zm10.227 9.785v-27.079h5.861v27.079zm18.303-16.228v16.228h-5.861v-27.079h4.553l15.598 16.664v-16.664h5.862v27.079h-4.748zm23.584 16.228 11.82-27.079h4.795l11.772 27.079h-6.201l-2.713-6.346h-10.511l-2.713 6.346zm14.242-19.958-3.972 8.526h7.799zm37.356-1.986h-9.543v21.944h-5.862v-21.944h-9.591v-5.135h24.996zm4.108 21.944v-27.079h5.861v27.079zm24.939.194c-2.131 0-4.069-.372-5.813-1.115-1.743-.775-3.245-1.808-4.505-3.1-1.259-1.324-2.228-2.809-2.906-4.457-.678-1.647-1.017-3.342-1.017-5.086 0-1.808.355-3.52 1.065-5.135.711-1.647 1.712-3.1 3.004-4.359 1.292-1.292 2.809-2.31 4.553-3.052 1.744-.743 3.65-1.114 5.716-1.114 2.132 0 4.069.403 5.813 1.211 1.744.775 3.23 1.824 4.457 3.148 1.259 1.292 2.228 2.761 2.907 4.409.678 1.647 1.017 3.326 1.017 5.037 0 1.777-.355 3.488-1.066 5.135-.71 1.615-1.712 3.068-3.003 4.36-1.26 1.292-2.762 2.309-4.505 3.052-1.712.71-3.617 1.066-5.717 1.066zm-8.331-13.709c0 1.098.193 2.163.581 3.197.387 1.001.936 1.905 1.647 2.712.71.808 1.582 1.454 2.616 1.938 1.065.452 2.244.678 3.536.678 1.324 0 2.503-.242 3.536-.726 1.034-.517 1.889-1.179 2.568-1.986.71-.84 1.243-1.76 1.598-2.762.388-1.033.581-2.066.581-3.1 0-1.098-.193-2.147-.581-3.149-.387-1.001-.936-1.889-1.647-2.664-.71-.807-1.582-1.437-2.616-1.889-1.033-.485-2.196-.727-3.488-.727-1.324 0-2.502.242-3.536.727-1.033.484-1.905 1.13-2.616 1.938-.71.807-1.259 1.727-1.647 2.761-.355 1.001-.532 2.018-.532 3.052zm33.343-2.713v16.228h-5.862v-27.079h4.554l15.598 16.664v-16.664h5.862v27.079h-4.748z" fill="url(#a)"/></svg>