<svg fill="none" height="394" viewBox="0 0 549 394" width="549" xmlns="http://www.w3.org/2000/svg" xmlns:xlink="http://www.w3.org/1999/xlink"><linearGradient id="a" gradientUnits="userSpaceOnUse" x1="-10.3906" x2="602.408" y1="190.281" y2="190.281"><stop offset="0" stop-color="#f10436"/><stop offset="1" stop-color="#ffae00"/></linearGradient><path d="m71.4325 22.121v32.16h-11.616v-53.663996h9.024l30.912 33.023996v-33.023996h11.6155v53.663996h-9.408zm77.7455 32.544c-4.224 0-8.064-.736-11.52-2.208-3.456-1.536-6.432-3.584-8.928-6.144-2.496-2.624-4.416-5.568-5.76-8.832s-2.016-6.624-2.016-10.08c0-3.584.704-6.976 2.112-10.176 1.408-3.264 3.392-6.144 5.952-8.64 2.56-2.56 5.568-4.576 9.024-6.048s7.232-2.207998 11.328-2.207998c4.224 0 8.064.799998 11.52 2.400008 3.456 1.536 6.4 3.61599 8.832 6.23999 2.496 2.56 4.416 5.472 5.76 8.736s2.016 6.592 2.016 9.984c0 3.52-.704 6.912-2.112 10.176-1.408 3.2-3.392 6.08-5.952 8.64-2.496 2.56-5.472 4.576-8.928 6.048-3.392 1.408-7.168 2.112-11.328 2.112zm-16.512-27.168c0 2.176.384 4.288 1.152 6.336.768 1.984 1.856 3.776 3.264 5.376s3.136 2.88 5.184 3.84c2.112.896 4.448 1.344 7.008 1.344 2.624 0 4.96-.48 7.008-1.44 2.048-1.024 3.744-2.336 5.088-3.936 1.408-1.664 2.464-3.488 3.168-5.472.768-2.048 1.152-4.096 1.152-6.144 0-2.176-.384-4.256-1.152-6.24s-1.856-3.744-3.264-5.28c-1.408-1.6-3.136-2.848-5.184-3.744-2.048-.96-4.352-1.44-6.912-1.44-2.624 0-4.96.48-7.008 1.44s-3.776 2.24-5.184 3.84-2.496 3.424-3.264 5.472c-.704 1.984-1.056 4-1.056 6.048zm72.755-26.687998h10.752l6.624 17.375998 6.816-17.375998h10.752l-10.176 24.671998 7.008 14.88 17.28-39.743996h12.672l-24.192 53.663996h-9.792l-10.272-21.6-10.272 21.6h-9.792l-24.192-53.663996h12.576l17.472 39.743996 6.72-14.88zm88.583 53.471998v-53.663996h11.616v53.663996zm59.216-38.592c-.64-.576-1.76-1.28-3.36-2.112s-3.456-1.536-5.568-2.112c-2.112-.64-4.288-.96-6.528-.96-3.008 0-5.28.448-6.816 1.344-1.472.832-2.208 2.08-2.208 3.744 0 1.28.48 2.304 1.44 3.072 1.024.768 2.496 1.44 4.416 2.016 1.984.576 4.384 1.216 7.2 1.92 3.776.96 7.04 2.048 9.792 3.264 2.816 1.216 4.96 2.816 6.432 4.8 1.536 1.984 2.304 4.64 2.304 7.968 0 3.008-.576 5.568-1.728 7.68-1.152 2.048-2.752 3.712-4.8 4.992-1.984 1.28-4.288 2.208-6.912 2.784-2.56.576-5.248.864-8.064.864-4.352 0-8.672-.608-12.96-1.824s-8.096-2.88-11.424-4.992l5.184-10.08c.896.832 2.272 1.76 4.128 2.784 1.92.96 4.192 1.824 6.816 2.592 2.688.704 5.504 1.056 8.448 1.056 2.88 0 5.056-.416 6.528-1.248 1.536-.832 2.304-1.984 2.304-3.456 0-1.408-.64-2.528-1.92-3.36-1.216-.832-2.912-1.568-5.088-2.208s-4.768-1.344-7.776-2.112c-3.648-.96-6.688-2.048-9.12-3.264-2.368-1.28-4.16-2.848-5.376-4.704-1.152-1.92-1.728-4.256-1.728-7.008 0-3.712.928-6.816 2.784-9.312 1.92-2.496 4.48-4.384 7.68-5.664 3.264-1.279997 6.816-1.919996 10.656-1.919996 4.096 0 7.872.607999 11.328 1.823996 3.456 1.152 6.432 2.528 8.928 4.128zm81.893-4.896h-18.912v43.488h-11.616v-43.488h-19.008v-10.175996h49.536zm58.253-10.175996v53.663996h-11.616v-22.272h-26.88v22.272h-11.616v-53.663996h11.616v21.119996h26.88v-21.119996zm54.451 43.487996v10.176h-41.376v-53.663996h40.608v10.175996h-28.992v11.424h25.056v9.504h-25.056v12.384zm-427.611 79.688h-18.912v43.488h-11.6155v-43.488h-19.008v-10.176h49.5355zm8.142 43.488v-53.664h11.616v53.664zm73.232 0v-33.504l-15.36 24.576h-6.336l-15.264-24.576v33.504h-11.616v-53.664h12.576l17.568 28.992 17.568-28.992h12.384v53.664zm66.019-10.176v10.176h-41.376v-53.664h40.608v10.176h-28.992v11.424h25.056v9.504h-25.056v12.384zm75.357-33.312h-18.912v43.488h-11.616v-43.488h-19.008v-10.176h49.536zm31.597 43.872c-4.224 0-8.064-.736-11.52-2.208-3.456-1.536-6.432-3.584-8.928-6.144-2.496-2.624-4.416-5.568-5.76-8.832s-2.016-6.624-2.016-10.08c0-3.584.704-6.976 2.112-10.176 1.408-3.264 3.392-6.144 5.952-8.64 2.56-2.56 5.568-4.576 9.024-6.048s7.232-2.208 11.328-2.208c4.224 0 8.064.8 11.52 2.4 3.456 1.536 6.4 3.616 8.832 6.24 2.496 2.56 4.416 5.472 5.76 8.736s2.016 6.592 2.016 9.984c0 3.52-.704 6.912-2.112 10.176-1.408 3.2-3.392 6.08-5.952 8.64-2.496 2.56-5.472 4.576-8.928 6.048-3.392 1.408-7.168 2.112-11.328 2.112zm-16.512-27.168c0 2.176.384 4.288 1.152 6.336.768 1.984 1.856 3.776 3.264 5.376s3.136 2.88 5.184 3.84c2.112.896 4.448 1.344 7.008 1.344 2.624 0 4.96-.48 7.008-1.44 2.048-1.024 3.744-2.336 5.088-3.936 1.408-1.664 2.464-3.488 3.168-5.472.768-2.048 1.152-4.096 1.152-6.144 0-2.176-.384-4.256-1.152-6.24s-1.856-3.744-3.264-5.28c-1.408-1.6-3.136-2.848-5.184-3.744-2.048-.96-4.352-1.44-6.912-1.44-2.624 0-4.96.48-7.008 1.44s-3.776 2.24-5.184 3.84-2.496 3.424-3.264 5.472c-.704 1.984-1.056 4-1.056 6.048zm101.237 27.168c-3.776 0-7.328-.736-10.656-2.208-3.264-1.536-6.144-3.584-8.64-6.144-2.432-2.56-4.352-5.472-5.76-8.736-1.408-3.328-2.112-6.816-2.112-10.464 0-3.712.704-7.168 2.112-10.368 1.408-3.264 3.36-6.112 5.856-8.544 2.56-2.496 5.536-4.448 8.928-5.856s7.072-2.112 11.04-2.112c5.376 0 9.984 1.088 13.824 3.264 3.84 2.112 6.72 4.928 8.64 8.448l-8.832 6.528c-1.28-2.56-3.2-4.512-5.76-5.856s-5.312-2.016-8.256-2.016c-2.368 0-4.544.448-6.528 1.344-1.92.896-3.584 2.112-4.992 3.648-1.344 1.536-2.4 3.328-3.168 5.376s-1.152 4.224-1.152 6.528c0 2.368.416 4.576 1.248 6.624s1.984 3.84 3.456 5.376 3.2 2.72 5.184 3.552c2.048.832 4.256 1.248 6.624 1.248 2.752 0 5.408-.672 7.968-2.016 2.624-1.344 5.088-3.264 7.392-5.76v11.424c-2.432 2.304-4.992 4-7.68 5.088-2.624 1.088-5.536 1.632-8.736 1.632zm15.552-19.776h-11.904v-8.448h21.504v27.84h-9.6zm45.036 19.776c-4.224 0-8.064-.736-11.52-2.208-3.456-1.536-6.432-3.584-8.928-6.144-2.496-2.624-4.416-5.568-5.76-8.832s-2.016-6.624-2.016-10.08c0-3.584.704-6.976 2.112-10.176 1.408-3.264 3.392-6.144 5.952-8.64 2.56-2.56 5.568-4.576 9.024-6.048s7.232-2.208 11.328-2.208c4.224 0 8.064.8 11.52 2.4 3.456 1.536 6.4 3.616 8.832 6.24 2.496 2.56 4.416 5.472 5.76 8.736s2.016 6.592 2.016 9.984c0 3.52-.704 6.912-2.112 10.176-1.408 3.2-3.392 6.08-5.952 8.64-2.496 2.56-5.472 4.576-8.928 6.048-3.392 1.408-7.168 2.112-11.328 2.112zm-16.512-27.168c0 2.176.384 4.288 1.152 6.336.768 1.984 1.856 3.776 3.264 5.376s3.136 2.88 5.184 3.84c2.112.896 4.448 1.344 7.008 1.344 2.624 0 4.96-.48 7.008-1.44 2.048-1.024 3.744-2.336 5.088-3.936 1.408-1.664 2.464-3.488 3.168-5.472.768-2.048 1.152-4.096 1.152-6.144 0-2.176-.384-4.256-1.152-6.24s-1.856-3.744-3.264-5.28c-1.408-1.6-3.136-2.848-5.184-3.744-2.048-.96-4.352-1.44-6.912-1.44-2.624 0-4.96.48-7.008 1.44s-3.776 2.24-5.184 3.84-2.496 3.424-3.264 5.472c-.704 1.984-1.056 4-1.056 6.048z" fill="#fff"/><path d="m256.584 266.553c0 3.008-.864 5.536-2.592 7.584s-4.032 3.584-6.912 4.608-6.048 1.536-9.504 1.536h-28.416v-53.664h31.584c2.752 0 5.12.672 7.104 2.016s3.52 3.072 4.608 5.184 1.632 4.32 1.632 6.624c0 2.496-.736 4.896-2.208 7.2-1.408 2.304-3.456 4-6.144 5.088 3.328.896 5.952 2.528 7.872 4.896 1.984 2.304 2.976 5.28 2.976 8.928zm-11.712-2.4c0-1.152-.32-2.208-.96-3.168-.576-.96-1.376-1.728-2.4-2.304-.96-.64-2.08-.96-3.36-.96h-17.376v12.768h16.8c1.344 0 2.56-.256 3.648-.768 1.088-.576 1.952-1.344 2.592-2.304.704-.96 1.056-2.048 1.056-3.264zm-24.096-27.552v12h15.072c1.216 0 2.336-.224 3.36-.672s1.824-1.12 2.4-2.016c.64-.896.96-2.016.96-3.36 0-1.28-.288-2.336-.864-3.168-.512-.896-1.248-1.568-2.208-2.016-.96-.512-2.016-.768-3.168-.768zm86.948 33.504v10.176h-41.376v-53.664h40.608v10.176h-28.992v11.424h25.056v9.504h-25.056v12.384zm16.431-43.488 14.688 25.056 14.784-25.056h12.672l-21.696 35.136v18.528h-11.52v-18.624l-21.504-35.04zm70.273 54.048c-4.224 0-8.064-.736-11.52-2.208-3.456-1.536-6.432-3.584-8.928-6.144-2.496-2.624-4.416-5.568-5.76-8.832s-2.016-6.624-2.016-10.08c0-3.584.704-6.976 2.112-10.176 1.408-3.264 3.392-6.144 5.952-8.64 2.56-2.56 5.568-4.576 9.024-6.048s7.232-2.208 11.328-2.208c4.224 0 8.064.8 11.52 2.4 3.456 1.536 6.4 3.616 8.832 6.24 2.496 2.56 4.416 5.472 5.76 8.736s2.016 6.592 2.016 9.984c0 3.52-.704 6.912-2.112 10.176-1.408 3.2-3.392 6.08-5.952 8.64-2.496 2.56-5.472 4.576-8.928 6.048-3.392 1.408-7.168 2.112-11.328 2.112zm-16.512-27.168c0 2.176.384 4.288 1.152 6.336.768 1.984 1.856 3.776 3.264 5.376s3.136 2.88 5.184 3.84c2.112.896 4.448 1.344 7.008 1.344 2.624 0 4.96-.48 7.008-1.44 2.048-1.024 3.744-2.336 5.088-3.936 1.408-1.664 2.464-3.488 3.168-5.472.768-2.048 1.152-4.096 1.152-6.144 0-2.176-.384-4.256-1.152-6.24s-1.856-3.744-3.264-5.28c-1.408-1.6-3.136-2.848-5.184-3.744-2.048-.96-4.352-1.44-6.912-1.44-2.624 0-4.96.48-7.008 1.44s-3.776 2.24-5.184 3.84-2.496 3.424-3.264 5.472c-.704 1.984-1.056 4-1.056 6.048zm66.079-5.376v32.16h-11.616v-53.664h9.024l30.912 33.024v-33.024h11.616v53.664h-9.408zm52.978 32.16v-53.664h21.696c6.464 0 11.872 1.216 16.224 3.648 4.352 2.368 7.616 5.568 9.792 9.6 2.24 4.032 3.36 8.512 3.36 13.44 0 5.44-1.216 10.176-3.648 14.208s-5.856 7.168-10.272 9.408c-4.352 2.24-9.504 3.36-15.456 3.36zm39.264-26.88c0-3.328-.704-6.208-2.112-8.64-1.344-2.496-3.328-4.448-5.952-5.856-2.56-1.408-5.728-2.112-9.504-2.112h-10.08v33.312h10.08c3.84 0 7.04-.704 9.6-2.112 2.624-1.472 4.608-3.488 5.952-6.048s2.016-5.408 2.016-8.544zm-536.045547 139.88v-53.664h11.616047v53.664zm73.232247 0v-33.504l-15.36 24.576h-6.336l-15.264-24.576v33.504h-11.616v-53.664h12.576l17.568 28.992 17.568-28.992h12.384v53.664zm18.4028 0 23.4235-53.664h9.504l23.328 53.664h-12.288l-5.376-12.576h-20.832l-5.376 12.576zm28.2235-39.552-7.872 16.896h15.456zm56.572 39.936c-3.776 0-7.328-.736-10.656-2.208-3.264-1.536-6.144-3.584-8.64-6.144-2.432-2.56-4.352-5.472-5.76-8.736-1.408-3.328-2.112-6.816-2.112-10.464 0-3.712.704-7.168 2.112-10.368 1.408-3.264 3.36-6.112 5.856-8.544 2.56-2.496 5.536-4.448 8.928-5.856s7.072-2.112 11.04-2.112c5.376 0 9.984 1.088 13.824 3.264 3.84 2.112 6.72 4.928 8.64 8.448l-8.832 6.528c-1.28-2.56-3.2-4.512-5.76-5.856s-5.312-2.016-8.256-2.016c-2.368 0-4.544.448-6.528 1.344-1.92.896-3.584 2.112-4.992 3.648-1.344 1.536-2.4 3.328-3.168 5.376s-1.152 4.224-1.152 6.528c0 2.368.416 4.576 1.248 6.624s1.984 3.84 3.456 5.376 3.2 2.72 5.184 3.552c2.048.832 4.256 1.248 6.624 1.248 2.752 0 5.408-.672 7.968-2.016 2.624-1.344 5.088-3.264 7.392-5.76v11.424c-2.432 2.304-4.992 4-7.68 5.088-2.624 1.088-5.536 1.632-8.736 1.632zm15.552-19.776h-11.904v-8.448h21.504v27.84h-9.6zm20.267 19.392v-53.664h11.616v53.664zm36.273-32.16v32.16h-11.616v-53.664h9.024l30.912 33.024v-33.024h11.616v53.664h-9.408zm46.737 32.16 23.424-53.664h9.504l23.328 53.664h-12.288l-5.376-12.576h-20.832l-5.376 12.576zm28.224-39.552-7.872 16.896h15.456zm74.031-3.936h-18.912v43.488h-11.616v-43.488h-19.008v-10.176h49.536zm8.142 43.488v-53.664h11.616v53.664zm49.424.384c-4.224 0-8.064-.736-11.52-2.208-3.456-1.536-6.432-3.584-8.928-6.144-2.496-2.624-4.416-5.568-5.76-8.832s-2.016-6.624-2.016-10.08c0-3.584.704-6.976 2.112-10.176 1.408-3.264 3.392-6.144 5.952-8.64 2.56-2.56 5.568-4.576 9.024-6.048s7.232-2.208 11.328-2.208c4.224 0 8.064.8 11.52 2.4 3.456 1.536 6.4 3.616 8.832 6.24 2.496 2.56 4.416 5.472 5.76 8.736s2.016 6.592 2.016 9.984c0 3.52-.704 6.912-2.112 10.176-1.408 3.2-3.392 6.08-5.952 8.64-2.496 2.56-5.472 4.576-8.928 6.048-3.392 1.408-7.168 2.112-11.328 2.112zm-16.512-27.168c0 2.176.384 4.288 1.152 6.336.768 1.984 1.856 3.776 3.264 5.376s3.136 2.88 5.184 3.84c2.112.896 4.448 1.344 7.008 1.344 2.624 0 4.96-.48 7.008-1.44 2.048-1.024 3.744-2.336 5.088-3.936 1.408-1.664 2.464-3.488 3.168-5.472.768-2.048 1.152-4.096 1.152-6.144 0-2.176-.384-4.256-1.152-6.24s-1.856-3.744-3.264-5.28c-1.408-1.6-3.136-2.848-5.184-3.744-2.048-.96-4.352-1.44-6.912-1.44-2.624 0-4.96.48-7.008 1.44s-3.776 2.24-5.184 3.84-2.496 3.424-3.264 5.472c-.704 1.984-1.056 4-1.056 6.048zm66.079-5.376v32.16h-11.616v-53.664h9.024l30.912 33.024v-33.024h11.616v53.664h-9.408z" fill="url(#a)"/></svg>